<svg xmlns="http://www.w3.org/2000/svg" viewBox="0 0 672 1024">
<path fill="#000000" opacity="1.000000" stroke="none" 
	d="
M297.711304,437.268341 
	C286.194275,423.513855 274.907837,410.028015 263.063354,395.875336 
	C268.291626,394.115295 272.760406,394.752991 277.106659,395.041840 
	C298.010437,396.431183 315.327515,405.378052 330.041626,420.070190 
	C361.066864,451.049103 390.267853,483.639954 417.403687,518.077393 
	C418.383545,519.320862 419.930725,520.342224 419.473724,522.951172 
	C413.547211,523.732605 407.497925,523.717651 401.459381,522.795471 
	C382.250275,519.862183 366.441376,510.564301 353.231354,496.609070 
	C334.690796,477.022491 315.329956,458.202332 297.711304,437.268341 
z"/>
<path fill="#000000" opacity="1.000000" stroke="none" 
	d="
M266.303955,542.334595 
	C259.013672,547.447083 252.023575,552.362915 245.033463,557.278809 
	C244.565536,556.826294 244.097595,556.373718 243.629669,555.921204 
	C264.512085,525.335144 285.394501,494.749115 305.917297,464.689758 
	C315.803436,474.309082 325.282776,483.532562 335.405853,493.382446 
	C312.370453,509.706177 289.487305,525.921997 266.303955,542.334595 
z"/>
<path fill="#000000" opacity="1.000000" stroke="none" 
	d="
M378.032288,451.957581 
	C376.623962,453.087585 375.543427,452.732025 374.673615,451.814240 
	C366.100708,442.768616 357.554321,433.697906 348.318542,423.911774 
	C378.246216,402.811981 407.241028,381.236847 437.852478,361.531067 
	C419.248749,392.488403 398.120178,421.675385 378.032288,451.957581 
z"/>
<path fill="#000000" opacity="1.000000" stroke="none" 
	d="
M328.799622,633.888428 
	C323.859772,637.723572 318.558655,639.310364 312.700012,639.294067 
	C305.542175,639.274231 298.383881,639.389709 291.226166,639.358887 
	C285.806458,639.335510 284.098999,637.924377 284.036194,632.749512 
	C283.870605,619.100952 283.898315,605.449768 283.905243,591.799622 
	C283.907593,587.158386 286.136261,584.751099 290.994690,584.837585 
	C297.984039,584.961975 304.985046,584.675232 311.966705,584.940857 
	C326.659729,585.499939 334.569122,592.166199 336.825012,606.507080 
	C338.405212,616.552795 337.019745,626.137207 328.799622,633.888428 
M325.794342,617.249268 
	C325.984772,616.101257 326.307343,614.957581 326.345154,613.804565 
	C326.701416,602.948120 322.180206,595.836853 311.188293,596.180359 
	C307.367706,596.299744 303.537506,596.232605 299.714935,596.130127 
	C296.512268,596.044250 295.277893,597.510681 295.317871,600.663025 
	C295.414856,608.311646 295.423492,615.964233 295.282745,623.611755 
	C295.222687,626.874695 296.622314,628.100769 299.742584,628.030518 
	C304.064117,627.933228 308.392273,628.097229 312.712219,627.968872 
	C320.291718,627.743652 323.191803,625.462097 325.794342,617.249268 
z"/>
<path fill="#000000" opacity="1.000000" stroke="none" 
	d="
M599.457520,638.882568 
	C589.887695,639.162903 580.729919,639.146118 571.578125,639.369568 
	C564.142273,639.551147 558.056763,637.425781 554.757202,630.242188 
	C551.590576,623.347717 553.840393,617.641479 559.385742,612.644104 
	C555.842773,608.834473 552.686707,604.946289 553.123230,599.522095 
	C553.801453,591.095032 559.401855,585.506592 568.730042,585.032227 
	C578.031250,584.559265 587.376343,584.983032 596.701660,584.931763 
	C600.824097,584.909058 601.020020,587.588745 601.057800,590.652161 
	C601.097595,593.877136 600.474854,596.205505 596.475403,596.155762 
	C588.482605,596.056335 580.487305,596.127502 572.493286,596.170044 
	C568.826477,596.189575 565.083679,596.451660 565.081787,601.410095 
	C565.079895,606.158081 568.528564,606.943787 572.339417,606.962158 
	C579.833923,606.998352 587.328796,607.047058 594.823120,607.010376 
	C597.949219,606.995056 599.890869,607.692932 599.598267,611.537231 
	C599.342468,614.900085 599.607178,617.696228 594.691650,617.449951 
	C587.216309,617.075378 579.707275,617.349976 572.212830,617.386414 
	C568.377075,617.405029 564.876221,618.437317 564.872620,622.973389 
	C564.869141,627.386414 568.353333,628.044739 571.971191,628.102051 
	C579.292847,628.218018 586.614807,628.354187 593.934204,628.565857 
	C601.600342,628.787598 602.958374,631.150940 599.457520,638.882568 
z"/>
<path fill="#000000" opacity="1.000000" stroke="none" 
	d="
M270.372009,609.052002 
	C270.358459,617.872070 270.198608,626.204407 270.395508,634.528259 
	C270.498322,638.875122 268.127533,639.267273 264.706268,639.349731 
	C261.107513,639.436340 259.578705,638.244263 259.647705,634.489807 
	C259.806824,625.830933 259.727844,617.166382 259.653076,608.504944 
	C259.572418,599.163391 256.623047,596.218384 247.433075,596.151855 
	C243.102768,596.120544 238.765457,595.995667 234.443222,596.185059 
	C229.291275,596.410828 227.210724,598.450317 227.106628,603.663269 
	C226.910477,613.487793 227.019684,623.317932 226.912674,633.144775 
	C226.852692,638.652649 222.031067,641.501221 217.100357,639.096924 
	C215.587402,638.359253 215.643524,637.036255 215.572433,635.712341 
	C214.920181,623.563782 215.447235,611.413696 215.773911,599.275574 
	C215.964294,592.200684 221.784103,586.376770 229.830765,585.279724 
	C237.578735,584.223450 245.504944,584.121704 253.241714,585.268921 
	C265.630035,587.105835 270.269562,593.759705 270.372009,609.052002 
z"/>
<path fill="#000000" opacity="1.000000" stroke="none" 
	d="
M448.570648,592.687256 
	C451.091309,586.498596 455.808014,584.026672 461.730469,583.981018 
	C467.747620,583.934753 472.479248,586.808838 474.803925,592.396118 
	C480.878143,606.995056 486.660889,621.715393 492.527710,636.400208 
	C492.755096,636.969421 492.650940,637.671021 492.697266,638.260071 
	C484.246826,641.283020 481.456329,640.140808 478.467926,632.547485 
	C474.138977,621.547974 469.851776,610.531799 465.467804,599.554260 
	C464.757812,597.776489 464.272369,595.390564 461.756927,595.374390 
	C459.244995,595.358276 458.762604,597.691101 458.016907,599.494019 
	C453.562836,610.262634 449.134399,621.041992 444.721344,631.827515 
	C441.248932,640.314148 440.428284,640.736328 429.971619,638.520752 
	C435.140320,622.877136 442.255005,608.136414 448.570648,592.687256 
z"/>
<path fill="#000000" opacity="1.000000" stroke="none" 
	d="
M383.991943,636.252380 
	C373.192322,629.392944 372.617279,618.709961 373.250610,608.151550 
	C374.206207,592.220276 382.490692,584.970032 398.519348,584.821533 
	C405.345825,584.758240 412.178223,584.988037 418.998840,584.782715 
	C422.616302,584.673828 423.711334,586.156250 423.438599,589.513916 
	C423.189148,592.584534 424.143463,596.174255 419.086395,596.116882 
	C411.927368,596.035645 404.766296,596.078491 397.606567,596.134094 
	C389.020050,596.200806 385.879486,598.886169 384.651367,607.305054 
	C384.340973,609.432617 384.325470,611.620667 384.358978,613.778076 
	C384.522858,624.330688 388.071411,627.910095 398.446533,627.996887 
	C405.273376,628.054016 412.104889,628.179260 418.926544,627.991577 
	C422.888031,627.882690 423.684296,629.735901 423.459991,633.207581 
	C423.250610,636.448059 423.827057,639.572571 418.798706,639.393250 
	C410.815918,639.108582 402.815887,639.322266 394.823273,639.292786 
	C391.077179,639.278992 387.619507,638.140991 383.991943,636.252380 
z"/>
<path fill="#000000" opacity="1.000000" stroke="none" 
	d="
M531.146240,596.149231 
	C522.045532,596.139954 522.059998,596.138916 522.682800,604.736633 
	C523.417725,614.882996 522.302551,625.014099 522.407959,635.152405 
	C522.452759,639.465088 519.731384,639.309631 516.746948,639.376892 
	C513.701965,639.445618 511.606934,638.968323 511.645233,635.141846 
	C511.755188,624.164490 511.482697,613.181458 511.708282,602.207825 
	C511.800110,597.741638 510.483002,595.759949 505.784485,596.103638 
	C501.649017,596.406250 497.470947,596.074585 493.313934,596.149048 
	C489.215759,596.222412 488.925171,593.577515 488.907532,590.482300 
	C488.889557,587.333862 489.318817,584.886658 493.378693,584.900879 
	C509.180847,584.956238 524.983521,584.924316 540.785767,584.856934 
	C544.921509,584.839294 545.101379,587.509949 545.130432,590.565552 
	C545.160767,593.752747 544.598816,596.234741 540.598267,596.127808 
	C537.606628,596.047729 534.610474,596.136353 531.146240,596.149231 
z"/>
<path fill="#000000" opacity="1.000000" stroke="none" 
	d="
M167.878754,607.096008 
	C162.692474,599.990295 157.011124,593.677124 152.556976,586.399719 
	C159.131378,583.316650 163.997925,584.493896 167.839325,589.838196 
	C171.790268,595.334961 175.754623,600.822083 180.268112,607.083374 
	C184.554733,601.188965 188.303802,595.978088 192.112350,590.811035 
	C196.705826,584.579163 199.572662,583.676575 207.615982,585.847595 
	C208.349747,587.787720 206.776611,588.879028 205.860870,590.130615 
	C200.648438,597.254578 195.535706,604.461426 190.056061,611.376221 
	C187.085083,615.125183 185.587448,618.963074 186.045792,623.766174 
	C186.376648,627.233276 185.958633,630.765564 186.142151,634.254639 
	C186.375397,638.689148 183.970215,639.402466 180.207504,639.422607 
	C176.419540,639.442810 174.555618,638.279785 174.859512,634.280151 
	C175.035721,631.961060 174.619705,629.580017 174.936981,627.291565 
	C176.024017,619.451538 173.572388,612.916992 167.878754,607.096008 
z"/>
<path fill="#000000" opacity="1.000000" stroke="none" 
	d="
M88.598434,591.436768 
	C87.187874,589.632629 85.215897,588.670715 84.821098,586.532227 
	C90.492416,583.376221 99.521797,584.336243 103.491875,588.750977 
	C117.630585,604.473328 131.680984,620.275085 145.754456,636.056091 
	C146.296768,636.664185 146.866028,637.314270 146.635834,638.257568 
	C139.408463,641.062378 132.427658,639.541260 127.531639,634.158386 
	C114.645569,619.990967 101.740494,605.840881 88.598434,591.436768 
z"/>
<path fill="#000000" opacity="1.000000" stroke="none" 
	d="
M360.333313,606.001343 
	C360.320587,615.829041 360.195007,625.158936 360.346802,634.484192 
	C360.407776,638.232422 358.871429,639.428406 355.290527,639.384033 
	C351.769562,639.340271 349.033844,639.125305 349.056000,634.514465 
	C349.128052,619.523926 349.103607,604.532043 348.971924,589.541931 
	C348.925659,584.270935 352.487000,585.022766 355.820251,584.828308 
	C359.750610,584.598877 360.576782,586.513977 360.405548,590.013794 
	C360.153473,595.165283 360.334991,600.337952 360.333313,606.001343 
z"/>
<path fill="#000000" opacity="1.000000" stroke="none" 
	d="
M86.831627,634.797302 
	C91.983185,629.138489 96.867882,623.712524 101.817650,618.346558 
	C103.564476,616.452942 105.611038,614.431152 107.914459,617.475708 
	C109.836281,620.015808 114.797997,621.803162 110.692566,626.329224 
	C108.910500,628.293884 106.971771,630.176758 105.523750,632.373291 
	C100.494148,640.002869 93.260918,640.347717 85.362320,638.881287 
	C84.169289,637.049500 85.783257,636.182007 86.831627,634.797302 
z"/>
<path fill="#000000" opacity="1.000000" stroke="none" 
	d="
M121.977783,603.855591 
	C119.436630,601.496643 119.466537,599.481934 121.605080,597.194458 
	C124.550323,594.044128 127.111809,590.517639 130.188995,587.511963 
	C135.070175,582.744324 140.947540,585.552795 147.605377,585.130432 
	C143.651764,591.945801 138.315475,596.050110 134.443756,601.297241 
	C133.661545,602.357361 132.604156,603.210388 131.716034,604.197083 
	C126.574196,609.909607 127.419502,609.728455 121.977783,603.855591 
z"/>
<path fill="#000000" opacity="1.000000" stroke="none" 
	d="
M549.051086,671.122559 
	C550.853027,663.702209 554.679504,660.185547 560.801880,659.953430 
	C565.889404,659.760437 570.425903,662.718079 572.078674,667.305481 
	C574.399902,673.748169 571.217590,680.294312 564.726990,682.428406 
	C558.109558,684.604248 551.754395,681.449097 549.696350,674.916626 
	C549.351379,673.821899 549.241150,672.653198 549.051086,671.122559 
M554.320618,671.501038 
	C555.664734,677.164612 559.046448,679.720398 563.204468,678.126099 
	C566.607483,676.821289 568.009155,674.266724 567.702454,670.647278 
	C567.375610,666.790955 564.883728,664.913452 561.490845,664.618347 
	C557.346924,664.257996 555.103455,666.809021 554.320618,671.501038 
z"/>
<path fill="#000000" opacity="1.000000" stroke="none" 
	d="
M506.438171,679.340210 
	C500.457489,683.755127 495.276947,684.236877 490.526733,681.075256 
	C486.781006,678.582092 484.812958,673.288818 486.030365,668.759155 
	C487.386230,663.714172 490.827637,660.874939 495.881744,660.151001 
	C500.707062,659.459900 504.911957,661.003906 507.506012,665.208740 
	C510.368835,669.849243 510.350677,674.636230 506.438171,679.340210 
M497.591278,678.420166 
	C502.707855,677.232056 505.205475,674.451965 504.442200,670.531494 
	C503.645752,666.440674 500.896332,664.763306 496.879700,665.039062 
	C493.767487,665.252747 491.517822,666.504700 491.141449,669.999878 
	C490.661469,674.456909 492.262238,677.401489 497.591278,678.420166 
z"/>
<path fill="#000000" opacity="1.000000" stroke="none" 
	d="
M430.017212,662.940613 
	C434.939728,659.393311 439.798157,658.645996 444.754272,661.809814 
	C448.799133,664.391968 450.393433,668.396484 449.804565,673.009460 
	C449.147430,678.156677 445.937195,681.310791 440.951691,682.705200 
	C436.268463,684.015076 432.374084,682.699463 429.276215,679.098083 
	C426.028229,675.322083 425.454926,671.060547 427.588379,666.538513 
	C428.148529,665.351257 429.008148,664.305359 430.017212,662.940613 
M444.576660,670.012024 
	C443.407349,666.216248 441.062897,663.881714 436.891113,664.784912 
	C432.955536,665.637024 430.976227,668.375671 431.399719,672.435852 
	C431.809784,676.367371 434.529816,678.475281 438.147186,678.405334 
	C442.738403,678.316528 444.808960,675.287170 444.576660,670.012024 
z"/>
<path fill="#000000" opacity="1.000000" stroke="none" 
	d="
M409.061981,679.069275 
	C407.384918,676.472290 405.401520,675.881836 402.666229,677.061890 
	C402.520020,678.122498 402.359192,679.245850 402.211426,680.370972 
	C401.993195,682.032288 400.937836,682.587036 399.406189,682.481445 
	C397.967896,682.382141 397.299103,681.417664 397.316406,680.147278 
	C397.395569,674.333740 397.555084,668.521179 397.717499,662.709106 
	C397.741516,661.849792 398.170715,661.183167 398.951141,660.695435 
	C401.514771,659.093506 410.836670,660.252136 413.280853,662.516296 
	C416.526489,665.522888 416.949677,669.317810 413.758392,674.034729 
	C411.394775,677.528259 415.931885,678.873840 415.425842,681.811035 
	C412.282043,683.884949 410.765045,681.642639 409.061981,679.069275 
M402.364563,669.270996 
	C403.106506,673.181824 406.020447,671.827454 408.244324,671.482971 
	C410.081482,671.198486 410.987274,669.677307 410.646912,667.760986 
	C410.296265,665.786499 408.767548,665.175781 407.000183,665.061157 
	C404.518555,664.899963 402.198120,665.036072 402.364563,669.270996 
z"/>
<path fill="#000000" opacity="1.000000" stroke="none" 
	d="
M382.654846,674.855347 
	C380.591492,676.161743 378.621979,676.533020 376.645325,676.746033 
	C374.349243,676.993469 372.350555,677.367615 372.229980,680.324158 
	C372.162659,681.974487 370.971649,682.565735 369.465576,682.483032 
	C367.445374,682.372192 367.148956,680.868042 367.139771,679.299011 
	C367.110718,674.328552 367.202545,669.356628 367.119720,664.387512 
	C367.070618,661.441589 368.319519,660.140564 371.283478,660.286804 
	C373.263519,660.384399 375.265656,660.090149 377.240387,660.226013 
	C380.974762,660.482910 383.948334,662.078918 385.441559,665.714600 
	C386.909912,669.289795 385.645844,672.169250 382.654846,674.855347 
M372.499695,666.914368 
	C372.453461,667.409607 372.392731,667.904053 372.363373,668.400269 
	C372.158966,671.856934 374.438690,672.062561 376.971069,671.887390 
	C379.266449,671.728699 380.862122,670.699280 380.656006,668.179443 
	C380.418732,665.278625 378.154938,665.029053 375.903168,664.972595 
	C374.721863,664.942993 373.572784,665.119934 372.499695,666.914368 
z"/>
<path fill="#000000" opacity="1.000000" stroke="none" 
	d="
M522.000732,678.918823 
	C518.347656,672.977966 518.664734,667.885315 522.683105,663.648193 
	C526.368713,659.762146 532.330383,658.727844 536.826050,661.298645 
	C538.190735,662.079163 540.257019,662.816833 539.338013,664.921692 
	C538.481140,666.884216 536.703125,666.551941 535.090210,665.619934 
	C531.674377,663.646057 528.629089,664.344666 526.187988,667.206116 
	C524.027832,669.738220 523.753906,672.705139 525.733521,675.479309 
	C528.122925,678.827820 531.330933,679.348389 534.947693,677.509338 
	C536.958557,676.486877 538.422668,676.926392 539.364868,678.983276 
	C535.040039,684.613831 528.643005,684.679443 522.000732,678.918823 
z"/>
<path fill="#000000" opacity="1.000000" stroke="none" 
	d="
M469.833069,660.008362 
	C471.121857,660.011719 471.958160,659.939941 472.775330,660.034180 
	C474.465424,660.229126 476.844086,659.454773 477.223480,662.002441 
	C477.658356,664.922607 475.266235,664.980591 473.261108,665.103699 
	C470.846222,665.251953 470.291779,666.740845 470.306976,668.814270 
	C470.332458,672.289978 470.284515,675.766052 470.277313,679.242004 
	C470.273499,681.090088 469.807190,682.616882 467.571289,682.548645 
	C465.594696,682.488342 465.219513,680.968933 465.159149,679.406677 
	C465.063324,676.927124 465.001587,674.441223 465.066101,671.961670 
	C465.159760,668.361267 465.493652,664.742615 460.203735,664.705872 
	C459.227386,664.699097 458.378723,663.885193 458.359467,662.705627 
	C458.336731,661.312500 459.209808,660.468994 460.457764,660.373962 
	C463.421234,660.148315 466.399567,660.117859 469.833069,660.008362 
z"/>
<path fill="#000000" opacity="1.000000" stroke="none" 
	d="
M583.949158,670.066040 
	C583.964478,667.920593 583.934326,666.252686 584.007080,664.589355 
	C584.087402,662.753662 584.018616,660.622620 586.612183,660.550049 
	C589.286865,660.475159 589.221680,662.586426 589.243103,664.449158 
	C589.277527,667.447632 589.389832,670.452942 589.239380,673.443787 
	C589.080322,676.605042 590.284424,678.161072 593.554993,677.933167 
	C594.546143,677.864136 595.558105,677.931030 596.548035,678.044189 
	C598.049500,678.215942 599.787292,678.378418 599.900024,680.324768 
	C600.037903,682.702942 598.061890,682.686096 596.414856,682.900757 
	C596.250305,682.922180 596.081848,682.911255 595.915833,682.923218 
	C584.383911,683.752686 583.969910,683.324585 583.949158,670.066040 
z"/>
</svg>