<svg width="64" height="64" viewBox="0 0 64 64" fill="none" xmlns="http://www.w3.org/2000/svg">
  <rect width="64" height="64" rx="16" fill="#F4F4F4"/>
  <path d="M14 18L28 28L25 21L14 18Z" fill="#8B4B1F"/>
  <path d="M50 18L36 28L39 21L50 18Z" fill="#8B4B1F"/>
  <path d="M19 34L15 42L25 40L23 34H19Z" fill="#C96A1E"/>
  <path d="M45 34L41 34L39 40L49 42L45 34Z" fill="#C96A1E"/>
  <path d="M24 29L21 33L31 33L30 24L24 29Z" fill="#F7931A"/>
  <path d="M40 29L34 24L33 33L43 33L40 29Z" fill="#F7931A"/>
  <path d="M25 40L31 37L26 33L25 40Z" fill="#E27625"/>
  <path d="M33 37L39 40L38 33L33 37Z" fill="#E27625"/>
  <path d="M31 43L31 37L25 40L31 43Z" fill="#F4B45F"/>
  <path d="M33 43L39 40L33 37V43Z" fill="#F4B45F"/>
  <path d="M28 35L31 36L30 33L28 35Z" fill="#233447"/>
  <path d="M36 35L34 33L33 36L36 35Z" fill="#233447"/>
</svg>
