<svg width="64" height="64" viewBox="0 0 212 189" fill="none" xmlns="http://www.w3.org/2000/svg">
  <path d="M162.2 36L116.3 70.3L124.8 50.2L162.2 36Z" fill="#E17726"/>
  <path d="M49.8 36L95.2 70.6L87.2 50.2L49.8 36Z" fill="#E27625"/>
  <path d="M145.7 115.2L133.7 133.6L159.3 140.6L166.7 115.6L145.7 115.2Z" fill="#E27625"/>
  <path d="M45.4 115.6L52.7 140.6L78.3 133.6L66.4 115.2L45.4 115.6Z" fill="#E27625"/>
  <path d="M76.9 83.6L69.8 94.3L95.1 95.4L94.3 68.2L76.9 83.6Z" fill="#E27625"/>
  <path d="M135.1 83.6L117.3 67.8L116.7 95.4L142.1 94.3L135.1 83.6Z" fill="#E27625"/>
  <path d="M78.3 133.6L93.6 126.1L80.4 115.8L78.3 133.6Z" fill="#E27625"/>
  <path d="M118.4 126.1L133.7 133.6L131.7 115.8L118.4 126.1Z" fill="#E27625"/>
  <path d="M133.7 133.6L118.4 126.1L119.7 136.7L119.6 141.2L133.7 133.6Z" fill="#D5BFB2"/>
  <path d="M78.3 133.6L92.5 141.2L92.4 136.7L93.6 126.1L78.3 133.6Z" fill="#D5BFB2"/>
  <path d="M92.7 108.6L80 104.9L88.9 100.8L92.7 108.6Z" fill="#233447"/>
  <path d="M119.4 108.6L123.2 100.8L132.2 104.9L119.4 108.6Z" fill="#233447"/>
</svg>
