<?xml version="1.0" standalone="no"?>
<!DOCTYPE svg PUBLIC "-//W3C//DTD SVG 20010904//EN"
 "http://www.w3.org/TR/2001/REC-SVG-20010904/DTD/svg10.dtd">
<svg version="1.0" xmlns="http://www.w3.org/2000/svg"
 width="832.000000pt" height="1248.000000pt" viewBox="0 0 832.000000 1248.000000"
 preserveAspectRatio="xMidYMid meet">
<g transform="translate(0.000000,1248.000000) scale(0.100000,-0.100000)" fill="currentColor" stroke="none">
<path d="M5275 8053 c-86 -58 -322 -225 -429 -303 -57 -41 -214 -154 -349
-250 l-245 -175 36 -40 c81 -90 287 -305 294 -305 3 0 40 51 81 113 42 61 125
184 186 272 321 467 486 714 480 719 -2 2 -26 -12 -54 -31z"/>
<path d="M3210 7666 c0 -4 40 -53 89 -110 49 -56 136 -159 193 -228 214 -259
260 -310 512 -573 401 -419 464 -474 629 -550 119 -55 207 -76 350 -82 70 -3
127 -3 127 1 0 4 -16 26 -35 49 -19 23 -84 101 -143 172 -336 409 -385 464
-671 760 -272 280 -356 360 -429 408 -155 102 -292 145 -494 154 -71 3 -128 3
-128 -1z"/>
<path d="M3689 6772 c-36 -55 -113 -169 -527 -773 -106 -155 -190 -284 -188
-286 3 -3 99 61 213 143 230 164 478 340 724 513 l161 113 -89 92 c-49 50
-125 128 -168 174 -43 45 -81 82 -84 82 -3 -1 -22 -27 -42 -58z"/>
<path d="M5585 5364 c-49 -12 -76 -29 -94 -58 -29 -46 -251 -571 -251 -592 0
-3 30 -4 66 -2 l67 3 107 259 c58 143 114 264 123 270 12 8 22 8 34 0 10 -6
65 -129 123 -275 58 -145 108 -263 113 -261 4 1 34 2 67 2 l60 0 -19 48 c-90
231 -207 513 -224 539 -12 17 -33 38 -47 47 -30 17 -94 27 -125 20z"/>
<path d="M1683 5353 l-82 -4 -63 -72 c-101 -114 -96 -100 -46 -153 l45 -46 50
53 c92 99 193 214 193 222 0 4 -3 6 -7 5 -5 -1 -45 -4 -90 -5z"/>
<path d="M2815 5356 c-5 -3 -27 -7 -48 -11 -47 -8 -104 -57 -128 -110 -16 -35
-19 -70 -19 -282 l0 -243 59 0 59 0 6 63 c3 34 5 136 4 227 -2 184 3 203 57
226 40 16 211 19 266 4 19 -6 46 -22 60 -36 24 -25 24 -28 27 -255 l3 -229 60
0 61 0 -4 243 -3 244 -30 49 c-22 36 -46 57 -85 78 -52 29 -62 30 -195 33 -77
1 -144 1 -150 -1z"/>
<path d="M3481 5341 c-21 -21 -21 -28 -21 -309 0 -220 3 -292 13 -306 12 -16
31 -17 217 -14 192 3 208 4 250 26 62 33 95 66 119 122 63 146 34 343 -62 425
-64 55 -110 65 -313 72 -176 6 -182 5 -203 -16z m406 -127 c59 -29 88 -90 87
-185 -1 -94 -23 -144 -80 -176 -36 -21 -50 -23 -174 -20 l-135 2 -3 176 c-1
106 2 188 8 204 l11 28 124 -5 c92 -4 134 -11 162 -24z"/>
<path d="M4260 5033 l0 -323 60 0 60 0 0 320 0 320 -32 1 c-18 1 -45 2 -60 3
l-28 2 0 -323z"/>
<path d="M4755 5346 c-157 -39 -211 -131 -203 -340 4 -99 7 -117 33 -165 61
-112 116 -131 377 -131 l188 0 0 59 0 59 -199 4 -200 3 -30 29 c-39 37 -51 80
-51 176 0 93 24 151 72 177 28 15 62 19 221 21 l188 4 -3 56 -3 57 -170 2
c-110 1 -188 -3 -220 -11z"/>
<path d="M6063 5353 l-103 -4 0 -54 0 -54 138 -3 137 -3 3 -262 2 -263 54 0
53 0 7 80 c4 45 6 163 5 263 l-2 182 136 3 137 3 0 53 0 54 -36 4 c-45 5 -393
6 -531 1z"/>
<path d="M6908 5351 c-155 -22 -221 -195 -111 -291 l37 -33 -27 -19 c-90 -66
-72 -220 32 -275 42 -22 54 -23 258 -23 l213 0 0 60 0 60 -200 0 c-187 0 -201
1 -220 20 -11 11 -20 33 -20 50 0 49 30 70 98 70 33 0 120 3 194 6 l135 7 2
48 1 49 -173 0 c-180 0 -230 8 -247 40 -17 31 -11 76 11 96 19 17 41 19 220
22 l199 4 0 54 0 54 -53 0 c-30 0 -107 2 -173 4 -65 3 -145 1 -176 -3z"/>
<path d="M1116 5244 c55 -59 108 -117 119 -128 11 -12 98 -108 194 -214 l173
-192 90 0 90 0 -124 136 c-68 75 -195 218 -283 318 l-161 181 -98 3 -99 3 99
-107z"/>
<path d="M1990 5166 l140 -184 0 -136 0 -136 60 0 60 0 0 133 0 134 118 159
c65 87 126 171 136 187 l18 27 -68 0 -69 0 -95 -130 c-52 -71 -99 -130 -104
-130 -6 0 -51 59 -101 130 l-90 129 -73 1 -73 0 141 -184z"/>
<path d="M1188 4899 c-40 -45 -94 -105 -120 -133 l-46 -51 86 -3 87 -3 53 58
c29 32 66 74 81 93 l29 36 -37 42 c-21 23 -43 42 -49 42 -5 0 -43 -37 -84 -81z"/>
<path d="M4480 4310 c0 -123 1 -130 20 -130 18 0 27 26 21 63 0 4 16 7 38 7
79 0 131 37 131 95 0 63 -51 95 -151 95 l-59 0 0 -130z m144 74 c21 -20 20
-58 0 -79 -11 -11 -30 -15 -58 -13 -40 3 -41 4 -44 42 -2 21 -1 44 2 52 7 19
80 18 100 -2z"/>
<path d="M4848 4434 c-5 -4 -8 -63 -8 -131 l0 -123 25 0 c22 0 25 4 25 34 0
29 4 34 27 39 36 7 44 2 71 -38 13 -21 30 -35 42 -35 25 0 25 8 0 40 -23 30
-25 46 -6 57 41 25 41 95 -1 135 -20 18 -38 23 -96 26 -40 2 -75 0 -79 -4z
m144 -51 c43 -39 6 -93 -64 -93 l-38 0 0 55 0 55 42 0 c24 0 49 -7 60 -17z"/>
<path d="M5258 4422 c-76 -47 -77 -178 -1 -227 36 -24 112 -25 147 -1 117 76
65 246 -74 246 -25 0 -57 -8 -72 -18z m136 -47 c33 -31 36 -90 5 -129 -16 -20
-29 -26 -59 -26 -52 0 -68 8 -85 41 -23 43 -18 77 14 110 38 38 87 39 125 4z"/>
<path d="M5587 4433 c-20 -19 -5 -33 38 -33 l45 0 0 -110 0 -110 25 0 25 0 0
110 0 110 45 0 c38 0 45 3 45 20 0 19 -7 20 -108 20 -60 0 -112 -3 -115 -7z"/>
<path d="M5993 4426 c-88 -40 -97 -180 -14 -229 39 -23 118 -22 157 2 30 18
64 74 64 105 0 31 -31 91 -57 110 -34 25 -109 31 -150 12z m129 -56 c27 -27
30 -36 25 -73 -7 -52 -36 -77 -89 -77 -71 0 -112 76 -77 141 25 47 98 51 141
9z"/>
<path d="M6393 4419 c-92 -59 -78 -192 26 -236 58 -25 175 14 137 46 -10 8
-21 8 -46 -3 -66 -27 -130 14 -130 84 0 67 83 113 139 78 19 -11 51 -6 51 10
0 4 -13 15 -29 25 -40 23 -108 22 -148 -4z"/>
<path d="M6759 4417 c-94 -62 -85 -183 17 -228 57 -26 108 -17 151 26 114 114
-34 292 -168 202z m136 -42 c50 -49 19 -153 -47 -156 -42 -2 -53 2 -80 32 -38
40 -37 82 1 120 38 38 91 40 126 4z"/>
<path d="M7120 4310 l0 -130 90 0 c83 0 90 1 90 20 0 18 -7 20 -65 20 l-65 0
0 110 0 110 -25 0 -25 0 0 -130z"/>
</g>
</svg>
