<svg xmlns="http://www.w3.org/2000/svg" viewBox="0 0 760 180" fill="none">
  <g fill="#0B0B0B">
    <path d="M227 18 162 85l64 65 28-28-36-37 37-39-28-28Z"/>
    <path d="M115 18h41l43 49 43-49h40l-63 70 69 74h-41l-48-52-48 52h-40l69-74-65-70Z"/>
    <path d="M302 18h34v91l87-91h34v144h-34V72l-87 90h-34V18Z"/>
    <path d="M489 18h57c44 0 75 10 95 29 18 18 27 42 27 71 0 30-9 55-27 73-20 19-51 29-95 29h-57V18Zm34 30v84h22c29 0 50-5 64-16 13-11 20-27 20-47 0-20-7-36-20-46-14-11-35-16-64-16h-22Z"/>
    <path d="M694 18h34v144h-34V18Z"/>
    <path d="M740 18h20v30h-20z" opacity="0"/>
  </g>
  <g fill="#0B0B0B">
    <path d="M537 22 621 0 567 64 537 22Z"/>
    <path d="M375 111 459 64 429 22 375 111Z"/>
    <path d="M446 8c28 3 54 17 79 42 25 25 42 53 53 84-17 9-34 14-52 14-42 0-79-18-111-55-18-21-34-48-47-80 23-7 48-9 78-5Z"/>
  </g>
  <g fill="#0B0B0B">
    <path d="M294 114h26l36 48 36-48h25v66h-16v-47l-36 47h-18l-37-47v47h-16v-66Z" opacity="0"/>
    <path d="M455 136h153v8H455z" opacity="0"/>
  </g>
  <g fill="#0B0B0B">
    <path d="M474 126h18c9 0 16 2 21 7 5 4 7 10 7 18 0 7-2 13-7 18-5 4-12 7-21 7h-6v17h-12v-67Zm12 10v21h6c11 0 16-4 16-11 0-7-5-10-16-10h-6Z"/>
    <path d="M535 126h27c8 0 15 2 19 6 5 4 7 10 7 17 0 10-5 17-14 21l17 23h-14l-15-21h-15v21h-12v-67Zm12 10v26h13c10 0 15-4 15-13 0-8-5-13-15-13h-13Z"/>
    <path d="M602 160c0-10 3-19 10-25 7-7 16-10 28-10 12 0 21 3 28 10 7 6 10 15 10 25 0 11-3 20-10 26-7 7-16 10-28 10-12 0-21-3-28-10-7-6-10-15-10-26Zm12 0c0 7 2 13 6 17 4 4 10 6 17 6 7 0 12-2 17-6 4-4 6-10 6-17 0-7-2-12-6-16-5-4-10-7-17-7-7 0-13 3-17 7-4 4-6 9-6 16Z"/>
    <path d="M690 126h12l21 49 21-49h12l-29 67h-9l-28-67Z"/>
  </g>
</svg>
